<?xml version="1.0" encoding="UTF-8"?>
<svg version="1.1" viewBox="0 0 2048 2048" width="1280" height="1280" xmlns="http://www.w3.org/2000/svg">
<path transform="translate(885,222)" d="m0 0h457l27 2 18 3 36 10 16 6 20 9 26 14 17 11 13 10 13 11 13 12 15 15 9 11 12 15 11 16 12 20 12 24 11 30 9 33 3 19 3 32v41l-4 29-6 27-6 20-10 26-13 26-10 16-10 15-11 14-12 14-25 25-11 9-14 11-17 11-19 11-16 8-21 9-25 8-29 7-27 4-15 1-129 1-337-1-15-3-12-5-14-9-10-9-8-9-6-14-1-14v-18l3-22 3-13 7-12 12-13 9-7 10-5 12-3 7-1 57-1h46l349-1 22-2 15-3 26-8 16-8 11-7 11-8 16-15 9-11 10-14 10-19 8-22 4-18 1-8v-31l-4-22-7-22-5-12-11-18-14-19-11-11-17-12-19-11-18-8-17-5-11-2-16-1-448-1-16-2-13-4-20-11-12-12-5-10v-18l2-27 1-41 4-8 9-10 10-7 11-5 11-2z" fill="#CB7C1D"/>
<path transform="translate(787,475)" d="m0 0h11l11 6 10 9 13 10 9 4h25l59-2 75-7 40-3 33-1h109l28 2 28 4 26 6 12 4 23 11 13 10 9 10 4 8 3 11v16l-4 6-4 3-8 2h-40l-47-3-65-7-21-2-20-1h-72l-104 3-41 4-35 5-30 7-10 4-5 6-8 26-7 25-6 19-6 20-12 35-9 25-16 42-17 44-21 53-30 75-11 28-13 33-13 35-10 28-15 47-12 43-5 22-10 60-6 24-8 24-11 25-10 21-9 16-13 22-18 30-11 18-9 15-10 17-9 16-11 21-6 12-9 7-6 3-8 1-12-3-15-9-10-9-9-13-3-10v-19l2-18 3-16 7-25 14-36 12-27 14-31 8-16 9-19 13-28 11-23 13-29 11-26 9-25 7-26 3-17 1-13v-14l-1-16-7-32-5-17-4-8-8-20-17-36-9-19-8-16-9-17-26-52-18-38-9-22-7-27-3-19v-27l5-22 6-14 8-12 12-14 13-12 9-7 19-14 13-8 7-4 17-10 16-7 10-5 15-5 17-7 30-11 53-16 27-8 19-5 24-7 16-4 17-7 10-9 12-22 4-6zm-73 136-21 2-29 6-35 10-16 6-20 9-17 8-15 9-14 9-12 9-13 10-19 19-7 10-9 15-4 11v15l4 22 7 26 12 36 11 29 14 33 8 16 7 16 7 12 6 12 12 16 6 7 4-1 5-12 5-10 13-31 14-34 8-21 11-27 14-36 16-41 11-28 19-49 12-32 11-29 6-18v-4z" fill="#EDA72B"/>
<path transform="translate(885,222)" d="m0 0h457v1l-262 1v2l4 1 9 6 1 1v6l-1 2v7l2 10 1 12v49l-1 10-1 1-1 15 2 4 2 11h2l1 5-4 5-8 6 248 2 9 1v1l-464-1-16-2-13-4-20-11-12-12-5-10v-18l2-27 1-41 4-8 9-10 10-7 11-5 11-2z" fill="#FACE8A"/>
<path transform="translate(910,699)" d="m0 0h410v1l-217 1-28 1 3 3v2l5 1 3 5v17l2 12v34l-1 21v27l3 11 3 7v4h-2l-2 4-6 4 73 1h159l34-1 24-3 10-2h5l-4 2-23 4-24 2-129 1-337-1-15-3-12-5-14-9-10-9-8-9-6-14-1-14v-18l3-22 3-13 7-12 12-13 9-7 10-5 12-3 7-1z" fill="#FBCF8B"/>
<path transform="translate(1092,223)" d="m0 0h146v1l-15 1v2l3 2 12 1 7 3 4 4-5 6h-6l-2 4h-2v7l-3 5h3l1-4h2v7l-3 5-4 3-2 9 1 3-2 3 1 3h2l-2 5h-2v7l1 1v12l-1 3 3 3-4 4-2 12-1 5v2l3 1 1 5 4 2 1 4h2l2 3 9 2 5 5 7 3v2h-4v2l-7 2-6 2-7 1-3 1 13 1v1h-63l-95-1 4-2 10-8 1-7h-2l-2-5-2-8-1-7 1-10 1-1 1-15v-47l-2-17-1-2v-7l1-2v-6l-10-7-3-1v-2z" fill="#EDA629"/>
<path transform="translate(1103,700)" d="m0 0h140v1l-18 1-1 2 6 2 3 3 6 3 1 3-4 4-7 2-4 9h3l-1 6 1 3-3 3-2 5h-2l-1 6-3 3 2 7-1 4-3 2-1 5 3 1 4 6h-2v6l2 7-5 1-1 10-1 9v6l6 4v2h2l3 5v3h3v2l9 2 5 4 4 1v2h-4v3l-14 4-13 1-1 1 100 1v1h-158l-76-1 5-4 5-3 1-2h2l-3-10-3-7-1-5v-36l1-17v-29l-2-16v-13l-2-4-5-2v-2l-4-2 1-2z" fill="#EDA629"/>
<path transform="translate(1056,700)" d="m0 0h47v1l-28 1 3 3v2l5 1 3 5v17l2 12v34l-1 21v27l3 11 3 7v4h-2l-2 4-6 4 73 1v1h-90l-59-1 2-1 1-3 4-1 1-2h2v-7l-3-9-1-12v-6l1-1 1-7 2-4v-16l1-21v-26l-2-6 1-13 1-1-3-9-7-3-3-2v-3l2-1z" fill="#F8C36B"/>
<path transform="translate(1083,222)" d="m0 0h259v1l-262 1v2l4 1 9 6 1 1v6l-1 2v7l2 10 1 12v49l-1 10-1 1-1 15 2 4 2 11h2l1 5-4 5-8 6-4 1h-69l2-1v-2l5-3 4-1 3-7h-3l-2-7v-8h-2v-11l4-11 1-12 1-3v-11l-2-4-1-15 1-11-2-15v-12l1-1-2-8-1-3-7-2-3-2 2-4z" fill="#F8C36B"/>
<path transform="translate(885,222)" d="m0 0h198v1l-176 1-26 1 1 5 3 6 1 4 3 34v24l-2 33v7l-2 6-2 19-2 7-1 1v5l4 1 44 1 408 1 9 1v1l-464-1-16-2-13-4-20-11-12-12-5-10v-18l2-27 1-41 4-8 9-10 10-7 11-5 11-2z" fill="#FCFCFC"/>
<path transform="translate(868,700)" d="m0 0h18v1l-8 1-1 1 1 13 1 6v68l-1 9-1 11v14l-1 19-3 6 1 5 29 1h412l34-1 24-3 10-2h5l-4 2-23 4-24 2-129 1-337-1-15-3-12-5-14-9-10-9-8-9-6-14-1-14v-18l3-22 3-13 7-12 12-13 9-7 10-5 12-3z" fill="#FCFCFC"/>
<path transform="translate(928,936)" d="m0 0h49l9 3 10 9 4 8 1 4v15l-3 7-3 5 1 6 6 9 2 8v7l-4 11-6 8-9 7-9 2-9 1h-35l-7-3-1-20-1-79 3-7zm12 16v30l7 1 26-1 7-3 4-4 1-3v-8l-4-8-4-3-4-1zm0 46v31l1 1h28l9-2 7-6 1-2v-10l-4-8-5-4z" fill="#D08528"/>
<path transform="translate(1184,936)" d="m0 0h21l9 3 9 7 6 7 5 12 1 4v74l-4 2h-7l-5-5-1-6v-19l-46-1 1 23-2 7-3 1h-8l-5-4v-71l3-12 7-11 9-7zm3 17-9 6-4 6-1 3-1 26 1 4h30l15-1v-24l-4-11-6-7-5-2z" fill="#D18930"/>
<path transform="translate(805,936)" d="m0 0h19l10 3 8 6 7 8 5 11 1 3 1 75-5 3h-8l-3-2-1-3v-27l-6 1h-40l-1 29-6 3-6-1-4-5-1-4v-55l2-18 4-10 9-10 11-6zm5 16-8 3-7 8-2 6-1 7v22h43l4-1v-15l-2-15-5-8-6-5-4-2z" fill="#D1872C"/>
<path transform="translate(1483,936)" d="m0 0h17l10 3 10 7 7 8 5 12 1 6v38l-4 13-6 10-7 6-9 5-14 3h-7l-13-4-10-8-6-8-5-12-1-6v-38l3-12 5-9 9-8 10-5zm2 16-10 5-6 9-2 9v28l2 12 5 9 8 5 5 1h9l9-3 7-6 4-9v-41l-4-10-8-7-5-2z" fill="#D1892F"/>
<path transform="translate(1333,936)" d="m0 0h20l11 4 10 8 6 9 3 10 1 11v63l-3 3-2 1h-8l-3-3-1-3-1-64-2-9-6-9-6-3-11-1-9 3-5 4-4 8-1 6-1 68-6 3-9-1-2-4v-72l3-11 8-11 10-7z" fill="#D28B33"/>
<path transform="translate(1074,935)" d="m0 0h6l5 5 1 10-1 93-3 2h-8l-3-2-1-9v-95z" fill="#CC7F1F"/>
<path transform="translate(1074,935)" d="m0 0h6l1 2-7 1-2 2-1 94h-1v-95z" fill="#FBDFB3"/>
<path transform="translate(1230,957)" d="m0 0 2 2 3 10v74l-4 1 2-3v-69l-3-12z" fill="#FBDAA8"/>
<path transform="translate(448,640)" d="m0 0 2 1-24 24v-3l12-13 8-7z" fill="#F6C87B"/>
</svg>
